# Blender v2.93.2 OBJ File: 'monke.blend'
# www.blender.org
o Cube
v -0.835033 -0.161301 6.846018
v -0.835033 0.161301 6.846018
v -0.835033 -0.161301 5.887215
v -0.835033 0.161301 5.887215
v -0.948813 0.161301 5.820336
v -0.948813 -0.161301 6.912896
v -0.948813 -0.161301 5.820336
v -0.948813 0.161301 6.912896
v -0.835033 0.100980 5.887215
v -0.835033 -0.100980 6.846018
v -0.835033 -0.100980 5.887215
v -0.835033 0.100980 6.846018
v -0.169557 0.161301 5.434098
v -0.255062 -0.161301 5.434098
v -0.224475 0.161301 5.547294
v -0.224475 -0.161301 5.547294
v -0.224475 0.100980 5.547294
v -0.224475 -0.100980 5.547294
v -0.224475 0.161301 6.153490
v -0.224475 0.100980 6.153490
v -0.948813 0.000000 5.820336
v -0.948813 0.000000 6.912896
v -0.169557 0.000000 5.434098
v -0.169557 0.161301 2.932988
v -0.169557 0.000000 2.932988
v -0.154251 0.205920 5.415264
v -0.211571 0.205920 5.521953
v -0.211571 0.205920 6.093300
v -0.154251 0.205920 2.930317
v -0.319400 0.168659 2.679455
v -0.319400 -0.033329 2.679455
v -0.319400 0.168659 2.034685
v -0.319400 -0.033329 2.034685
v -0.301039 0.224533 2.200899
v -0.117477 0.144364 7.335365
v -0.117477 0.247464 6.686495
v -0.117477 0.247464 2.912373
v -0.226149 0.181586 2.567764
v -0.394363 0.024481 6.675519
v -0.394363 0.239975 6.675519
v -0.394363 0.024481 6.603371
v -0.394363 0.239975 6.603371
v -0.052046 0.248670 6.685776
v -0.064945 0.246346 2.913039
v -0.049237 0.146076 7.334344
v -0.020803 0.145907 7.334445
v -0.023613 0.248501 6.685877
v -0.036511 0.246178 2.913140
v -0.088108 0.247464 6.686495
v -0.088108 0.247464 2.912373
v -0.200872 0.189340 2.556045
v -0.088108 0.144364 7.335365
v -0.178959 0.213605 2.234926
v -0.147398 0.218520 2.230742
v -0.223943 0.176338 2.528574
v -0.198666 0.184093 2.516855
v -0.176636 0.209474 2.195638
v -0.145075 0.214389 2.191454
v -0.498042 0.396496 2.545599
v -0.546744 0.342428 2.590285
v -0.457770 0.670019 1.816585
v -0.542732 0.601708 1.847807
v -0.502884 0.381575 2.429726
v -0.551587 0.327507 2.474412
v -0.464695 0.656373 1.679156
v -0.549658 0.588062 1.710378
v 0.835033 -0.161301 6.846018
v 0.835033 0.161301 6.846018
v 0.835033 -0.161301 5.887215
v 0.835033 0.161301 5.887215
v 0.000000 -0.161301 5.422319
v 0.000000 -0.161301 7.310913
v 0.000000 0.161301 7.310913
v 0.000000 -0.161301 5.291822
v 0.948813 0.161301 5.820336
v 0.948813 -0.161301 6.912896
v 0.948813 -0.161301 5.820336
v 0.948813 0.161301 6.912896
v 0.000000 -0.161301 7.441137
v 0.000000 0.161301 7.441137
v 0.000000 -0.100980 5.422319
v 0.000000 0.100980 5.422319
v 0.835033 0.100980 5.887215
v 0.835033 -0.100980 6.846018
v 0.835033 -0.100980 5.887215
v 0.835033 0.100980 6.846018
v 0.000000 -0.100980 7.310913
v 0.000000 0.100980 7.310913
v 0.169557 0.161301 5.434098
v 0.255062 -0.161301 5.434098
v 0.224475 0.161301 5.547294
v 0.224475 -0.161301 5.547294
v 0.224475 0.100980 5.547294
v 0.224475 -0.100980 5.547294
v 0.000000 0.100980 6.280050
v 0.000000 0.161301 6.280050
v 0.224475 0.161301 6.153490
v 0.224475 0.100980 6.153490
v 0.000000 0.000000 7.441137
v 0.000000 0.000000 4.787719
v 0.948813 0.000000 5.820336
v 0.948813 0.000000 6.912896
v 0.169557 0.000000 5.434098
v 0.169557 0.161301 2.932988
v 0.000000 0.000000 2.655582
v 0.169557 0.000000 2.932988
v 0.000000 0.205920 5.281168
v 0.000000 0.205920 5.404163
v 0.154251 0.205920 5.415264
v 0.211571 0.205920 5.521953
v 0.000000 0.205920 6.212584
v 0.211571 0.205920 6.093300
v 0.154251 0.205920 2.930317
v 0.000000 0.205920 2.940484
v 0.000000 0.224533 2.822075
v 0.319400 0.168659 2.679455
v 0.000000 -0.033329 2.501633
v 0.319400 -0.033329 2.679455
v 0.000000 0.168659 1.856863
v 0.000000 0.224533 2.033299
v 0.319400 0.168659 2.034685
v 0.000000 -0.033329 1.856863
v 0.319400 -0.033329 2.034685
v 0.301039 0.224533 2.200899
v 0.117477 0.144364 7.335365
v 0.117477 0.247464 6.686495
v 0.117477 0.247464 2.912373
v 0.226149 0.181586 2.567764
v 0.394363 0.024481 6.675519
v 0.394363 0.239975 6.675519
v 0.394363 0.024481 6.603371
v 0.394363 0.239975 6.603371
v 0.044752 0.249904 6.684162
v 0.064525 0.246455 2.913338
v 0.040788 0.147495 7.332371
v 0.012341 0.147334 7.332525
v 0.016306 0.249743 6.684316
v 0.036078 0.246294 2.913492
v 0.088108 0.247464 6.686495
v 0.088108 0.247464 2.912373
v 0.200872 0.189340 2.556045
v 0.088108 0.144364 7.335365
v 0.179832 0.213479 2.235348
v 0.148263 0.218402 2.231228
v 0.223943 0.176338 2.528574
v 0.198666 0.184093 2.516855
v 0.177580 0.209337 2.196083
v 0.146011 0.214259 2.191963
v 0.456026 0.453958 2.454734
v 0.504728 0.399890 2.499421
v 0.508986 0.815887 1.608772
v 0.593947 0.747558 1.639797
v 0.460868 0.439036 2.338861
v 0.509571 0.384969 2.383548
v 0.516169 0.802198 1.471396
v 0.601129 0.733868 1.502421
v 0.000000 0.024481 6.603371
v 0.000000 0.239975 6.603371
v 0.000000 0.024481 6.675519
v 0.000000 0.239975 6.675519
vt -0.410846 0.709236
vt -0.401099 0.709239
vt -0.401099 0.807487
vt -0.410846 0.807484
vt -0.385464 0.690937
vt -0.411530 0.690928
vt -0.411530 0.285565
vt -0.385464 0.285574
vt -1.229378 0.794260
vt -1.219602 0.794260
vt -1.219602 0.830641
vt -1.229378 0.830641
vt -0.611794 0.160381
vt -0.575412 0.139869
vt -0.575412 0.150788
vt -0.609702 0.170121
vt -1.306478 0.817199
vt -1.309190 0.794260
vt -1.282065 0.794755
vt -1.282065 0.899418
vt -0.410854 0.244369
vt -0.378213 0.244380
vt -0.575412 0.700297
vt -0.600412 0.682760
vt -0.575412 0.681112
vt -0.418217 0.797735
vt -0.418217 0.705135
vt -0.575380 0.381809
vt -0.547899 0.277056
vt -0.547899 0.682390
vt -0.575380 0.727347
vt -0.575412 0.281812
vt -0.575412 0.301747
vt -0.600412 0.280013
vt -0.609702 0.262722
vt -0.418931 0.687884
vt -0.418931 0.285141
vt -0.410854 0.139869
vt -0.420112 0.166818
vt -0.627178 0.723431
vt -0.602893 0.682342
vt -0.378213 0.139880
vt -0.575412 0.828137
vt -0.624202 0.800973
vt -0.523613 0.723547
vt -0.575380 0.752365
vt -0.758082 0.516925
vt -0.757363 0.465159
vt -0.724636 0.465159
vt -0.725355 0.516925
vt -0.575412 0.856752
vt -0.627178 0.827931
vt -0.523613 0.828039
vt -0.575380 0.856858
vt -1.219602 0.829087
vt -1.219602 0.794263
vt -1.207908 0.794260
vt -1.207908 0.829083
vt -1.030713 0.552107
vt -1.065640 0.552107
vt -1.065640 0.488191
vt -1.030713 0.488191
vt -1.272317 0.858176
vt -1.272317 0.794260
vt -1.260624 0.794260
vt -1.260624 0.858176
vt -1.030724 0.743856
vt -1.065640 0.743856
vt -1.065640 0.679940
vt -1.030724 0.679940
vt -1.248931 0.794259
vt -1.248931 0.858176
vt -1.260624 0.858176
vt -1.260624 0.794259
vt -0.410846 0.709236
vt -0.410846 0.807484
vt -0.401099 0.807487
vt -0.401099 0.709239
vt -0.385464 0.690937
vt -0.385464 0.285574
vt -0.411530 0.285565
vt -0.411530 0.690928
vt -1.229378 0.794260
vt -1.219602 0.794260
vt -0.611794 0.160381
vt -0.609702 0.170121
vt -1.282065 0.794755
vt -1.309190 0.794260
vt -0.378213 0.244380
vt -0.410854 0.244369
vt -0.600412 0.682760
vt -0.418217 0.705135
vt -0.418217 0.797735
vt -0.547899 0.682390
vt -0.547899 0.277056
vt -0.609702 0.262722
vt -0.600412 0.280013
vt -0.418931 0.687884
vt -0.418931 0.285141
vt -0.410854 0.139869
vt -0.420112 0.166818
vt -0.602893 0.682342
vt -0.627178 0.723431
vt -0.378213 0.139880
vt -0.624202 0.800973
vt -0.523613 0.723547
vt -0.724636 0.465159
vt -0.757363 0.465159
vt -0.627178 0.827931
vt -0.523613 0.828039
vt -1.219602 0.829087
vt -1.207908 0.829083
vt -1.207908 0.794260
vt -1.219602 0.794263
vt -1.030713 0.488191
vt -1.065640 0.488191
vt -1.260624 0.794260
vt -1.272317 0.794260
vt -1.030724 0.743856
vt -1.065640 0.743856
vt -1.248931 0.794259
vt -1.260624 0.794259
vt -0.955995 0.890003
vt -0.992376 0.910256
vt -0.992376 0.771251
vt -0.955995 0.791762
vt -0.825428 0.897882
vt -0.825428 0.771574
vt -0.799295 0.771251
vt -0.799295 0.897559
vt -0.877798 0.948335
vt -0.877798 0.771260
vt -0.851732 0.771269
vt -0.851732 0.948344
vt -0.961139 0.142634
vt -0.961139 0.296413
vt -0.987282 0.296413
vt -0.987282 0.142634
vt -1.053987 0.879194
vt -1.063760 0.879194
vt -1.065640 0.743856
vt -1.055866 0.743856
vt -1.218959 0.446812
vt -1.223981 0.465159
vt -1.336356 0.402559
vt -1.317915 0.391720
vt -1.047199 0.236315
vt -1.028758 0.225476
vt -1.028758 0.402539
vt -1.047199 0.391700
vt -1.336356 0.225483
vt -1.317915 0.236323
vt -1.182537 0.160973
vt -1.182537 0.139869
vt -1.146155 0.446789
vt -1.141198 0.465133
vt -1.182537 0.488191
vt -1.182537 0.467042
vt -1.182577 0.139869
vt -1.182577 0.160975
vt -0.736290 0.667648
vt -0.746066 0.667648
vt -0.746066 0.568692
vt -0.736290 0.568692
vt -1.044239 0.899252
vt -1.053987 0.899255
vt -1.053987 0.743859
vt -1.044239 0.743856
vt -0.736290 0.568692
vt -0.726516 0.568692
vt -0.724636 0.704030
vt -0.734410 0.704030
vt -0.758082 0.568695
vt -0.748335 0.568692
vt -0.748335 0.724088
vt -0.758082 0.724092
vt -1.239155 0.794259
vt -1.229378 0.794259
vt -1.229378 0.893216
vt -1.239155 0.893216
vt -0.736290 0.704030
vt -0.746066 0.704030
vt -0.934996 0.142634
vt -0.934996 0.296413
vt -0.903863 0.948326
vt -0.903863 0.771251
vt -0.851732 0.884348
vt -0.851561 0.771898
vt -0.955995 0.890003
vt -0.955995 0.791762
vt -0.825428 0.897882
vt -0.799295 0.897559
vt -0.799295 0.771251
vt -0.825428 0.771574
vt -0.877798 0.948335
vt -0.851732 0.948344
vt -0.851732 0.771269
vt -0.877798 0.771260
vt -0.961139 0.142634
vt -0.987282 0.142634
vt -1.055866 0.743856
vt -1.065640 0.743856
vt -1.218959 0.446812
vt -1.317915 0.391720
vt -1.336356 0.402559
vt -1.223981 0.465159
vt -1.047199 0.236315
vt -1.047199 0.391700
vt -1.028758 0.402539
vt -1.028758 0.225476
vt -1.317915 0.236323
vt -1.336356 0.225483
vt -1.146155 0.446789
vt -1.141198 0.465133
vt -0.736290 0.667648
vt -0.736290 0.568692
vt -0.746066 0.568692
vt -0.746066 0.667648
vt -1.044239 0.899252
vt -1.044239 0.743856
vt -1.053987 0.743859
vt -1.053987 0.899255
vt -0.736290 0.568692
vt -0.726516 0.568692
vt -0.758082 0.568695
vt -0.758082 0.724092
vt -0.748335 0.724088
vt -0.748335 0.568692
vt -1.239155 0.794259
vt -1.239155 0.893216
vt -1.229378 0.893216
vt -1.229378 0.794259
vt -0.934996 0.142634
vt -0.903863 0.948326
vt -0.903863 0.771251
vt -0.851732 0.884348
vt -0.851561 0.771898
vt -1.200978 0.794260
vt -1.200978 0.488191
vt -1.065640 0.563533
vt -1.065640 0.718918
vt -1.164596 0.774006
vt -1.164596 0.774006
vt -1.065640 0.718918
vt -1.065640 0.563533
vt -1.336375 0.718365
vt -1.237419 0.773457
vt -1.201037 0.793712
vt -1.237419 0.773457
vt -1.336375 0.718365
vt -1.336375 0.562967
vt -1.201037 0.487620
vt -1.336375 0.562967
vt 0.407453 0.014222
vt 0.455156 0.014222
vt 0.455156 0.129646
vt 0.407453 0.129646
vt 0.455156 0.801005
vt 0.407453 0.801005
vt 0.312045 0.801005
vt 0.359749 0.801005
vt 0.149507 0.883080
vt 0.031723 0.883080
vt 0.312045 0.129646
vt 0.359749 0.129646
vt 0.312045 0.014222
vt 0.359749 0.014222
vt 0.418938 0.929921
vt 0.335015 0.929921
vt 0.000000 0.000000
vt 0.000000 0.000000
vt 0.000000 0.000000
vt 0.000000 0.000000
vt 0.000000 0.000000
vt 0.000000 0.000000
vt 0.000000 0.000000
vt 0.000000 0.000000
vt 0.335015 0.929921
vt 0.418938 0.929921
vt 0.418938 0.929921
vt 0.335015 0.929921
vt 0.031723 0.883080
vt 0.149507 0.883080
vt 0.149507 0.883080
vt 0.031723 0.883080
vt 0.000000 0.000000
vt 0.000000 0.000000
vt 0.000000 0.000000
vt 0.000000 0.000000
vt 0.000000 0.000000
vt 0.000000 0.000000
vt 0.000000 0.000000
vt 0.000000 0.000000
vt 0.407453 0.014222
vt 0.407453 0.129646
vt 0.455156 0.129646
vt 0.455156 0.014222
vt 0.407453 0.801005
vt 0.455156 0.801005
vt 0.312045 0.801005
vt 0.031723 0.883080
vt 0.149507 0.883080
vt 0.359749 0.801005
vt 0.312045 0.129646
vt 0.359749 0.129646
vt 0.312045 0.014222
vt 0.359749 0.014222
vt 0.335015 0.929921
vt 0.418938 0.929921
vt 0.000000 0.000000
vt 0.000000 0.000000
vt 0.000000 0.000000
vt 0.000000 0.000000
vt 0.000000 0.000000
vt 0.000000 0.000000
vt 0.000000 0.000000
vt 0.000000 0.000000
vt 0.335015 0.929921
vt 0.335015 0.929921
vt 0.418938 0.929921
vt 0.418938 0.929921
vt 0.031723 0.883080
vt 0.031723 0.883080
vt 0.149507 0.883080
vt 0.149507 0.883080
vt 0.000000 0.000000
vt 0.000000 0.000000
vt 0.000000 0.000000
vt 0.000000 0.000000
vt 0.000000 0.000000
vt 0.000000 0.000000
vt 0.000000 0.000000
vt 0.000000 0.000000
vn -1.0000 0.0000 0.0000
vn -0.4911 0.0000 0.8711
vn -0.2970 0.7965 0.5267
vn -0.7852 -0.4525 -0.4228
vn -0.8609 0.0000 0.5088
vn -0.0102 0.9878 0.1553
vn -0.9606 0.2778 0.0000
vn 0.0000 -1.0000 0.0000
vn 0.0000 1.0000 0.0000
vn -0.8893 0.0564 -0.4539
vn -0.9459 0.3245 0.0000
vn -0.9500 0.3122 0.0000
vn -0.3115 0.9481 0.0643
vn -0.0879 0.9952 0.0426
vn 0.1119 -0.9864 0.1202
vn -0.4864 0.0000 -0.8737
vn -0.1658 0.9402 -0.2977
vn 0.0000 0.0000 1.0000
vn 0.0000 0.0000 -1.0000
vn 1.0000 0.0000 0.0000
vn 0.4911 0.0000 0.8711
vn 0.2970 0.7965 0.5267
vn 0.7852 -0.4525 -0.4228
vn 0.8609 0.0000 0.5088
vn 0.0102 0.9878 0.1553
vn 0.9606 0.2778 0.0000
vn 0.8893 0.0564 -0.4539
vn 0.9459 0.3245 0.0000
vn 0.9500 0.3122 0.0000
vn 0.3115 0.9481 0.0643
vn 0.0879 0.9952 0.0426
vn -0.1119 -0.9864 0.1202
vn 0.4864 0.0000 -0.8737
vn 0.1658 0.9402 -0.2977
vn -0.4441 0.0000 -0.8960
vn -0.4864 0.0000 0.8737
vn 0.4864 0.0000 0.8737
vn -0.4610 0.1222 -0.8790
vn 0.4441 0.0000 -0.8960
vn 0.4610 0.1222 -0.8790
vn 0.0053 0.9877 0.1562
vn 0.0059 1.0000 -0.0006
vn -0.1649 0.9789 -0.1211
vn 0.0000 0.9876 0.1569
vn -0.0809 0.9962 -0.0309
vn -0.1361 -0.5739 -0.8075
vn -0.7646 -0.6390 0.0842
vn -0.6359 0.7705 -0.0445
vn -0.7627 0.6447 -0.0512
vn 0.2801 0.4422 0.8520
vn 0.5673 0.8153 -0.1157
vn 0.8498 0.5218 -0.0746
vn 0.2118 -0.6775 -0.7044
vn -0.1520 0.6158 0.7731
vn -0.4353 -0.8918 0.1234
vn -0.0047 0.9877 0.1560
vn -0.0057 1.0000 -0.0009
vn 0.1649 0.9789 -0.1211
vn 0.0811 0.9962 -0.0310
vn 0.0705 -0.6250 -0.7774
vn 0.8265 -0.5574 0.0793
vn 0.6357 0.7707 -0.0436
vn 0.7627 0.6447 -0.0512
vn -0.2028 0.5164 0.8320
vn -0.7314 0.6745 -0.1002
vn -0.8832 0.4636 -0.0715
vn -0.2331 -0.6965 -0.6787
vn 0.1916 0.6553 0.7307
vn 0.6260 -0.7718 0.1110
g Cube_Cube_neck
s off
f 15/1/1 17/2/1 20/3/1 19/4/1
f 23/5/1 13/6/1 24/7/1 25/8/1
f 19/9/2 20/10/2 95/11/2 96/12/2
f 19/13/3 96/14/3 111/15/3 28/16/3
f 74/17/4 14/18/4 23/19/4 100/20/4
f 25/8/5 24/7/5 30/21/5 31/22/5
f 115/23/6 29/24/6 114/25/6
f 15/1/7 19/4/7 28/26/7 27/27/7
f 100/28/8 23/29/8 25/30/8 105/31/8
f 108/32/9 107/33/9 26/34/9 27/35/9
f 108/32/9 27/35/9 28/16/9 111/15/9
f 26/34/9 107/33/9 114/25/9 29/24/9
f 13/6/10 15/1/10 27/27/10 26/36/10
f 24/7/11 13/6/11 26/36/11 29/37/11
f 32/38/12 30/21/12 34/39/12
f 29/24/13 115/23/13 30/40/13 24/41/13
f 31/22/1 30/21/1 32/38/1 33/42/1
f 30/40/14 115/23/14 120/43/14 34/44/14
f 105/31/15 25/30/15 31/45/15 117/46/15
f 122/47/16 33/48/16 32/49/16 119/50/16
f 119/51/17 32/52/17 34/44/17 120/43/17
f 117/46/8 31/45/8 33/53/8 122/54/8
f 39/55/1 40/56/1 42/57/1 41/58/1
f 159/59/18 160/60/18 40/61/18 39/62/18
f 158/63/9 42/64/9 40/65/9 160/66/9
f 41/67/19 42/68/19 158/69/19 157/70/19
f 41/71/8 157/72/8 159/73/8 39/74/8
f 91/75/20 97/76/20 98/77/20 93/78/20
f 103/79/20 106/80/20 104/81/20 89/82/20
f 97/83/21 96/12/21 95/11/21 98/84/21
f 97/85/22 112/86/22 111/15/22 96/14/22
f 74/17/23 100/20/23 103/87/23 90/88/23
f 106/80/24 118/89/24 116/90/24 104/81/24
f 115/23/25 114/25/25 113/91/25
f 91/75/26 110/92/26 112/93/26 97/76/26
f 100/28/8 105/31/8 106/94/8 103/95/8
f 108/32/9 110/96/9 109/97/9 107/33/9
f 108/32/9 111/15/9 112/86/9 110/96/9
f 109/97/9 113/91/9 114/25/9 107/33/9
f 89/82/27 109/98/27 110/92/27 91/75/27
f 104/81/28 113/99/28 109/98/28 89/82/28
f 121/100/29 124/101/29 116/90/29
f 113/91/30 104/102/30 116/103/30 115/23/30
f 118/89/20 123/104/20 121/100/20 116/90/20
f 116/103/31 124/105/31 120/43/31 115/23/31
f 105/31/32 117/46/32 118/106/32 106/94/32
f 122/47/33 119/50/33 121/107/33 123/108/33
f 119/51/34 120/43/34 124/105/34 121/109/34
f 117/46/8 122/54/8 123/110/8 118/106/8
f 129/111/20 131/112/20 132/113/20 130/114/20
f 159/59/18 129/115/18 130/116/18 160/60/18
f 158/63/9 160/66/9 130/117/9 132/118/9
f 131/119/19 157/70/19 158/69/19 132/120/19
f 131/121/8 129/122/8 159/73/8 157/72/8
g Cube_Cube_metal
f 17/123/8 82/124/8 95/125/8 20/126/8
f 23/127/35 21/128/35 5/129/35 13/130/35
f 21/131/1 22/132/1 8/133/1 5/134/1
f 22/135/36 99/136/36 80/137/36 8/138/36
f 73/139/33 88/140/33 12/141/33 2/142/33
f 15/143/9 13/144/9 5/145/9 4/146/9
f 1/147/8 6/148/8 7/149/8 3/150/8
f 4/146/9 5/145/9 8/151/9 2/152/9
f 72/153/8 79/154/8 6/148/8 1/147/8
f 16/155/8 14/156/8 74/157/8 71/158/8
f 2/152/9 8/151/9 80/159/9 73/160/9
f 16/161/37 18/162/37 11/163/37 3/164/37
f 2/165/20 12/166/20 9/167/20 4/168/20
f 1/169/33 10/170/33 87/171/33 72/172/33
f 3/173/20 11/174/20 10/175/20 1/176/20
f 4/177/37 9/178/37 17/179/37 15/180/37
f 71/181/37 81/182/37 18/162/37 16/161/37
f 3/150/8 7/149/8 14/156/8 16/155/8
f 6/183/36 79/184/36 99/136/36 22/135/36
f 7/185/1 6/186/1 22/132/1 21/131/1
f 14/187/38 7/188/38 21/128/38 23/127/38
f 93/189/8 98/190/8 95/125/8 82/124/8
f 103/191/39 89/192/39 75/193/39 101/194/39
f 101/195/20 75/196/20 78/197/20 102/198/20
f 102/199/37 78/200/37 80/137/37 99/136/37
f 73/139/16 68/201/16 86/202/16 88/140/16
f 91/203/9 70/204/9 75/205/9 89/206/9
f 67/207/8 69/208/8 77/209/8 76/210/8
f 70/204/9 68/211/9 78/212/9 75/205/9
f 72/153/8 67/207/8 76/210/8 79/154/8
f 92/213/8 71/158/8 74/157/8 90/214/8
f 68/211/9 73/160/9 80/159/9 78/212/9
f 92/215/36 69/216/36 85/217/36 94/218/36
f 68/219/1 70/220/1 83/221/1 86/222/1
f 67/223/16 72/172/16 87/171/16 84/224/16
f 69/225/1 67/226/1 84/227/1 85/228/1
f 70/229/36 91/230/36 93/231/36 83/232/36
f 71/181/36 92/215/36 94/218/36 81/182/36
f 69/208/8 92/213/8 90/214/8 77/209/8
f 76/233/37 102/199/37 99/136/37 79/184/37
f 77/234/20 101/195/20 102/198/20 76/235/20
f 90/236/40 103/191/40 101/194/40 77/237/40
g Cube_Cube_skin
f 81/238/8 87/239/8 10/240/8 11/241/8 18/242/8
f 81/238/8 94/243/8 85/244/8 84/245/8 87/239/8
f 83/246/9 93/247/9 82/248/9 17/249/9 9/250/9 12/251/9 88/252/9 86/253/9
g Cube_Cube_strings
f 45/254/41 46/255/41 47/256/41 43/257/41
f 43/257/42 47/256/42 48/258/42 44/259/42
f 37/260/43 50/261/43 51/262/43 38/263/43
f 36/264/9 49/265/9 50/261/9 37/260/9
f 35/266/44 52/267/44 49/265/44 36/264/44
f 48/258/45 54/268/45 53/269/45 44/259/45
f 56/270/46 55/271/46 64/272/46 63/273/46
f 57/274/47 53/275/47 62/276/47 66/277/47
f 62/278/48 61/279/48 65/280/48 66/281/48
f 60/282/49 59/283/49 63/284/49 64/285/49
f 38/263/50 51/262/50 59/283/50 60/282/50
f 51/286/51 56/270/51 63/273/51 59/287/51
f 54/288/52 58/289/52 65/290/52 61/291/52
f 58/289/53 57/274/53 66/277/53 65/290/53
f 53/269/54 54/268/54 61/279/54 62/278/54
f 55/271/55 38/292/55 60/293/55 64/272/55
f 135/294/56 133/295/56 137/296/56 136/297/56
f 133/295/57 134/298/57 138/299/57 137/296/57
f 127/300/58 128/301/58 141/302/58 140/303/58
f 126/304/9 127/300/9 140/303/9 139/305/9
f 125/306/44 126/304/44 139/305/44 142/307/44
f 138/299/59 134/298/59 143/308/59 144/309/59
f 146/310/60 153/311/60 154/312/60 145/313/60
f 147/314/61 156/315/61 152/316/61 143/317/61
f 152/318/62 156/319/62 155/320/62 151/321/62
f 150/322/63 154/323/63 153/324/63 149/325/63
f 128/301/64 150/322/64 149/325/64 141/302/64
f 141/326/65 149/327/65 153/311/65 146/310/65
f 144/328/66 151/329/66 155/330/66 148/331/66
f 148/331/67 155/330/67 156/315/67 147/314/67
f 143/308/68 152/318/68 151/321/68 144/309/68
f 145/313/69 154/312/69 150/332/69 128/333/69
