# Blender v2.93.2 OBJ File: ''
# www.blender.org
mtllib MonkeyHandR.mtl
o Cube.002_Cube.003
v -5.247477 -0.779672 0.364595
v -5.555824 1.000000 0.449438
v -5.247477 -0.779672 -0.364595
v -5.555824 1.000000 -0.490270
v -3.775422 -1.000000 0.364595
v -3.555824 1.000000 0.449438
v -3.775422 -1.000000 -0.364595
v -3.555824 1.000000 -0.490270
v -4.471841 -1.000000 -0.364595
v -4.448210 1.000000 -0.490270
v -4.471841 -1.000000 0.364595
v -4.448210 1.000000 0.449438
v -4.629550 2.287531 0.474758
v -5.374483 1.781109 0.474758
v -5.374483 1.781109 0.835190
v -4.629550 2.287531 0.835190
v -3.801912 2.310151 0.529858
v -4.202121 2.492298 0.529858
v -4.202121 2.492298 0.780090
v -3.801912 2.310151 0.780090
vt 0.375000 0.250000
vt 0.625000 0.250000
vt 0.625000 0.388452
vt 0.625000 0.500000
vt 0.375000 0.500000
vt 0.375000 0.388452
vt 0.375000 0.000000
vt 0.625000 0.000000
vt 0.375000 0.750000
vt 0.625000 0.750000
vt 0.625000 0.861548
vt 0.625000 1.000000
vt 0.375000 1.000000
vt 0.375000 0.861548
vt 0.263452 0.500000
vt 0.263452 0.750000
vt 0.749476 0.522276
vt 0.862072 0.522276
vt 0.862072 0.727724
vt 0.749476 0.727724
vt 0.637928 0.522276
vt 0.723621 0.522276
vt 0.723621 0.727724
vt 0.637928 0.727724
vt 0.125000 0.500000
vt 0.125000 0.750000
vt 0.875000 0.500000
vt 0.875000 0.750000
vt 0.736548 0.750000
vt 0.736548 0.500000
vn -0.0041 -0.0649 -0.9979
vn -0.9853 -0.1707 0.0000
vn -0.0028 -0.0439 0.9990
vn 0.0000 -1.0000 0.0000
vn -0.5622 0.8270 0.0000
vn 0.4142 0.9102 0.0000
vn -0.2733 -0.9619 0.0000
vn -0.4897 0.7204 -0.4911
vn -0.9741 0.2261 0.0000
vn 0.0951 -0.3479 0.9327
vn 0.9902 0.1395 0.0000
vn 0.0827 0.5866 -0.8057
vn -0.9867 0.1627 0.0000
vn -0.0323 -0.2295 0.9728
vn 0.9828 0.1846 0.0000
vn 0.0000 0.5998 -0.8002
vn 0.9940 -0.1091 0.0000
usemtl None
s off
f 3/1/1 4/2/1 10/3/1 8/4/1 7/5/1 9/6/1
f 1/7/2 2/8/2 4/2/2 3/1/2
f 5/9/3 6/10/3 12/11/3 2/12/3 1/13/3 11/14/3
f 9/15/4 7/5/4 5/9/4 11/16/4
f 13/17/5 14/18/5 15/19/5 16/20/5
f 17/21/6 18/22/6 19/23/6 20/24/6
f 3/25/7 9/15/7 11/16/7 1/26/7
f 14/18/8 13/17/8 4/27/8
f 4/27/9 2/28/9 15/19/9 14/18/9
f 2/28/10 12/29/10 16/20/10 15/19/10
f 12/29/11 10/30/11 13/17/11 16/20/11
f 8/4/12 10/30/12 18/22/12 17/21/12
f 10/30/13 12/29/13 19/23/13 18/22/13
f 12/29/14 6/10/14 20/24/14 19/23/14
f 6/10/15 8/4/15 17/21/15 20/24/15
f 10/30/16 4/27/16 13/17/16
f 7/5/17 8/4/17 6/10/17 5/9/17
